<svg width="14" height="8" viewBox="0 0 14 8" fill="none" xmlns="http://www.w3.org/2000/svg">
<path d="M1.18038 0.214986C1.11359 0.146313 1.03502 0.0926256 0.949163 0.0569897C0.863304 0.0213537 0.771834 0.00446749 0.679976 0.00729465C0.588119 0.0101218 0.497672 0.0326076 0.413802 0.0734677C0.329931 0.114328 0.254278 0.172762 0.191162 0.245434C0.128047 0.318107 0.0787043 0.403594 0.0459527 0.497014C0.013201 0.590435 -0.00231868 0.68996 0.000279837 0.789906C0.00287835 0.889853 0.0235441 0.988264 0.0610972 1.07952C0.0986502 1.17078 0.152355 1.25309 0.219146 1.32177L6.51545 7.79193C6.64534 7.92555 6.81732 8 6.99607 8C7.17482 8 7.34679 7.92555 7.47669 7.79193L13.7737 1.32177C13.8419 1.25355 13.8971 1.17125 13.9358 1.07966C13.9746 0.988064 13.9963 0.889002 13.9996 0.788224C14.0029 0.687446 13.9877 0.58696 13.955 0.492605C13.9223 0.398249 13.8727 0.311904 13.8091 0.238585C13.7454 0.165267 13.669 0.106435 13.5843 0.0655088C13.4996 0.0245824 13.4083 0.00237656 13.3156 0.000180721C13.223 -0.00201511 13.1308 0.0158434 13.0446 0.0527186C12.9583 0.0895939 12.8797 0.144751 12.8132 0.214986L6.99607 6.1919L1.18038 0.214986Z" fill="#303030"/>
</svg>
