<svg width="20" height="21" viewBox="0 0 20 21" fill="none" xmlns="http://www.w3.org/2000/svg">
<path d="M5.673 0C5.85865 0 6.0367 0.0774373 6.16797 0.215276C6.29925 0.353116 6.373 0.540066 6.373 0.735V2.10945H13.89V0.74445C13.89 0.549516 13.9637 0.362566 14.095 0.224727C14.2263 0.0868873 14.4043 0.00945 14.59 0.00945C14.7757 0.00945 14.9537 0.0868873 15.085 0.224727C15.2163 0.362566 15.29 0.549516 15.29 0.74445V2.10945H18C18.5303 2.10945 19.0388 2.33056 19.4139 2.72415C19.7889 3.11775 19.9997 3.65163 20 4.2084V18.901C19.9997 19.4578 19.7889 19.9917 19.4139 20.3853C19.0388 20.7789 18.5303 21 18 21H2C1.46974 21 0.961184 20.7789 0.58614 20.3853C0.211096 19.9917 0.00026513 19.4578 0 18.901L0 4.2084C0.00026513 3.65163 0.211096 3.11775 0.58614 2.72415C0.961184 2.33056 1.46974 2.10945 2 2.10945H4.973V0.73395C4.97327 0.539198 5.04713 0.352517 5.17838 0.214905C5.30963 0.0772929 5.48752 -1.98727e-07 5.673 0ZM1.4 8.1291V18.901C1.4 18.9838 1.41552 19.0657 1.44567 19.1421C1.47583 19.2186 1.52002 19.288 1.57574 19.3465C1.63145 19.405 1.69759 19.4514 1.77039 19.4831C1.84319 19.5148 1.92121 19.531 2 19.531H18C18.0788 19.531 18.1568 19.5148 18.2296 19.4831C18.3024 19.4514 18.3685 19.405 18.4243 19.3465C18.48 19.288 18.5242 19.2186 18.5543 19.1421C18.5845 19.0657 18.6 18.9838 18.6 18.901V8.1438L1.4 8.1291ZM6.667 15.3499V17.0993H5V15.3499H6.667ZM10.833 15.3499V17.0993H9.167V15.3499H10.833ZM15 15.3499V17.0993H13.333V15.3499H15ZM6.667 11.1741V12.9234H5V11.1741H6.667ZM10.833 11.1741V12.9234H9.167V11.1741H10.833ZM15 11.1741V12.9234H13.333V11.1741H15ZM4.973 3.5784H2C1.92121 3.5784 1.84319 3.59469 1.77039 3.62636C1.69759 3.65802 1.63145 3.70442 1.57574 3.76292C1.52002 3.82142 1.47583 3.89087 1.44567 3.96731C1.41552 4.04374 1.4 4.12567 1.4 4.2084V6.66015L18.6 6.67485V4.2084C18.6 4.12567 18.5845 4.04374 18.5543 3.96731C18.5242 3.89087 18.48 3.82142 18.4243 3.76292C18.3685 3.70442 18.3024 3.65802 18.2296 3.62636C18.1568 3.59469 18.0788 3.5784 18 3.5784H15.29V4.55385C15.29 4.74878 15.2163 4.93573 15.085 5.07357C14.9537 5.21141 14.7757 5.28885 14.59 5.28885C14.4043 5.28885 14.2263 5.21141 14.095 5.07357C13.9637 4.93573 13.89 4.74878 13.89 4.55385V3.5784H6.373V4.5444C6.373 4.73933 6.29925 4.92628 6.16797 5.06412C6.0367 5.20196 5.85865 5.2794 5.673 5.2794C5.48735 5.2794 5.3093 5.20196 5.17803 5.06412C5.04675 4.92628 4.973 4.73933 4.973 4.5444V3.5784Z" fill="white"/>
</svg>
