<svg width="21" height="21" viewBox="0 0 21 21" fill="none" xmlns="http://www.w3.org/2000/svg">
<path d="M5.69171 0.5C5.87736 0.5 6.05541 0.57375 6.18668 0.705025C6.31796 0.836301 6.39171 1.01435 6.39171 1.2V2.509H13.9087V1.209C13.9087 1.02335 13.9825 0.845301 14.1137 0.714025C14.245 0.58275 14.4231 0.509 14.6087 0.509C14.7944 0.509 14.9724 0.58275 15.1037 0.714025C15.235 0.845301 15.3087 1.02335 15.3087 1.209V2.509H18.0187C18.549 2.509 19.0575 2.71958 19.4326 3.09443C19.8076 3.46929 20.0184 3.97774 20.0187 4.508V18.501C20.0184 19.0313 19.8076 19.5397 19.4326 19.9146C19.0575 20.2894 18.549 20.5 18.0187 20.5H2.01871C1.48845 20.5 0.979891 20.2894 0.604847 19.9146C0.229803 19.5397 0.0189724 19.0313 0.0187073 18.501L0.0187073 4.508C0.0189724 3.97774 0.229803 3.46929 0.604847 3.09443C0.979891 2.71958 1.48845 2.509 2.01871 2.509H4.99171V1.199C4.99197 1.01352 5.06584 0.835731 5.19709 0.704672C5.32833 0.573612 5.50623 0.5 5.69171 0.5ZM1.41871 8.242V18.501C1.41871 18.5798 1.43423 18.6578 1.46438 18.7306C1.49453 18.8034 1.53873 18.8695 1.59444 18.9253C1.65016 18.981 1.7163 19.0252 1.7891 19.0553C1.86189 19.0855 1.93991 19.101 2.01871 19.101H18.0187C18.0975 19.101 18.1755 19.0855 18.2483 19.0553C18.3211 19.0252 18.3873 18.981 18.443 18.9253C18.4987 18.8695 18.5429 18.8034 18.573 18.7306C18.6032 18.6578 18.6187 18.5798 18.6187 18.501V8.256L1.41871 8.242ZM6.68571 15.119V16.785H5.01871V15.119H6.68571ZM10.8517 15.119V16.785H9.18571V15.119H10.8517ZM15.0187 15.119V16.785H13.3517V15.119H15.0187ZM6.68571 11.142V12.808H5.01871V11.142H6.68571ZM10.8517 11.142V12.808H9.18571V11.142H10.8517ZM15.0187 11.142V12.808H13.3517V11.142H15.0187ZM4.99171 3.908H2.01871C1.93991 3.908 1.86189 3.92352 1.7891 3.95367C1.7163 3.98382 1.65016 4.02802 1.59444 4.08374C1.53873 4.13945 1.49453 4.20559 1.46438 4.27839C1.43423 4.35119 1.41871 4.42921 1.41871 4.508V6.843L18.6187 6.857V4.508C18.6187 4.42921 18.6032 4.35119 18.573 4.27839C18.5429 4.20559 18.4987 4.13945 18.443 4.08374C18.3873 4.02802 18.3211 3.98382 18.2483 3.95367C18.1755 3.92352 18.0975 3.908 18.0187 3.908H15.3087V4.837C15.3087 5.02265 15.235 5.2007 15.1037 5.33197C14.9724 5.46325 14.7944 5.537 14.6087 5.537C14.4231 5.537 14.245 5.46325 14.1137 5.33197C13.9825 5.2007 13.9087 5.02265 13.9087 4.837V3.908H6.39171V4.828C6.39171 5.01365 6.31796 5.1917 6.18668 5.32297C6.05541 5.45425 5.87736 5.528 5.69171 5.528C5.50606 5.528 5.32801 5.45425 5.19673 5.32297C5.06546 5.1917 4.99171 5.01365 4.99171 4.828V3.908Z" fill="white" fill-opacity="0.5"/>
</svg>
