<svg width="21" height="21" viewBox="0 0 21 21" fill="none" xmlns="http://www.w3.org/2000/svg">
<path d="M5.69168 0.5C5.87733 0.5 6.05538 0.57375 6.18665 0.705025C6.31793 0.836301 6.39168 1.01435 6.39168 1.2V2.509H13.9087V1.209C13.9087 1.02335 13.9824 0.845301 14.1137 0.714025C14.245 0.58275 14.423 0.509 14.6087 0.509C14.7943 0.509 14.9724 0.58275 15.1037 0.714025C15.2349 0.845301 15.3087 1.02335 15.3087 1.209V2.509H18.0187C18.5489 2.509 19.0575 2.71958 19.4325 3.09443C19.8076 3.46929 20.0184 3.97774 20.0187 4.508V18.501C20.0184 19.0313 19.8076 19.5397 19.4325 19.9146C19.0575 20.2894 18.5489 20.5 18.0187 20.5H2.01868C1.48842 20.5 0.979861 20.2894 0.604817 19.9146C0.229773 19.5397 0.0189419 19.0313 0.0186768 18.501L0.0186768 4.508C0.0189419 3.97774 0.229773 3.46929 0.604817 3.09443C0.979861 2.71958 1.48842 2.509 2.01868 2.509H4.99168V1.199C4.99194 1.01352 5.06581 0.835731 5.19706 0.704672C5.3283 0.573612 5.5062 0.5 5.69168 0.5ZM1.41868 8.242V18.501C1.41868 18.5798 1.4342 18.6578 1.46435 18.7306C1.4945 18.8034 1.5387 18.8695 1.59441 18.9253C1.65013 18.981 1.71627 19.0252 1.78907 19.0553C1.86186 19.0855 1.93988 19.101 2.01868 19.101H18.0187C18.0975 19.101 18.1755 19.0855 18.2483 19.0553C18.3211 19.0252 18.3872 18.981 18.4429 18.9253C18.4987 18.8695 18.5429 18.8034 18.573 18.7306C18.6032 18.6578 18.6187 18.5798 18.6187 18.501V8.256L1.41868 8.242ZM6.68568 15.119V16.785H5.01868V15.119H6.68568ZM10.8517 15.119V16.785H9.18568V15.119H10.8517ZM15.0187 15.119V16.785H13.3517V15.119H15.0187ZM6.68568 11.142V12.808H5.01868V11.142H6.68568ZM10.8517 11.142V12.808H9.18568V11.142H10.8517ZM15.0187 11.142V12.808H13.3517V11.142H15.0187ZM4.99168 3.908H2.01868C1.93988 3.908 1.86186 3.92352 1.78907 3.95367C1.71627 3.98382 1.65013 4.02802 1.59441 4.08374C1.5387 4.13945 1.4945 4.20559 1.46435 4.27839C1.4342 4.35119 1.41868 4.42921 1.41868 4.508V6.843L18.6187 6.857V4.508C18.6187 4.42921 18.6032 4.35119 18.573 4.27839C18.5429 4.20559 18.4987 4.13945 18.4429 4.08374C18.3872 4.02802 18.3211 3.98382 18.2483 3.95367C18.1755 3.92352 18.0975 3.908 18.0187 3.908H15.3087V4.837C15.3087 5.02265 15.2349 5.2007 15.1037 5.33197C14.9724 5.46325 14.7943 5.537 14.6087 5.537C14.423 5.537 14.245 5.46325 14.1137 5.33197C13.9824 5.2007 13.9087 5.02265 13.9087 4.837V3.908H6.39168V4.828C6.39168 5.01365 6.31793 5.1917 6.18665 5.32297C6.05538 5.45425 5.87733 5.528 5.69168 5.528C5.50603 5.528 5.32798 5.45425 5.1967 5.32297C5.06543 5.1917 4.99168 5.01365 4.99168 4.828V3.908Z" fill="#303030"/>
</svg>
