<svg width="14" height="14" viewBox="0 0 14 14" fill="none" xmlns="http://www.w3.org/2000/svg">
<path d="M8.64179 2.81554L1.75207 9.70429C1.54722 9.90908 1.41392 10.1745 1.372 10.4611L1 13L3.53941 12.628C3.82609 12.5859 4.09152 12.4523 4.29619 12.2472L11.1846 5.35846M8.64179 2.81554L10.1412 1.31535C10.2412 1.21537 10.3598 1.13607 10.4904 1.08196C10.621 1.02785 10.761 1 10.9024 1C11.0437 1 11.1837 1.02785 11.3143 1.08196C11.4449 1.13607 11.5636 1.21537 11.6635 1.31535L12.6847 2.33655C12.7846 2.43651 12.8639 2.55517 12.918 2.68578C12.9722 2.81639 13 2.95638 13 3.09775C13 3.23912 12.9722 3.3791 12.918 3.50971C12.8639 3.64032 12.7846 3.75899 12.6847 3.85894L11.1846 5.35846M8.64179 2.81554L11.1846 5.35846" stroke="#303030" stroke-width="1.5" stroke-linecap="round" stroke-linejoin="round"/>
</svg>
