<svg width="21" height="21" viewBox="0 0 21 21" fill="none" xmlns="http://www.w3.org/2000/svg">
<path d="M1.5 2.25C1.5 2.1837 1.52634 2.12011 1.57322 2.07322C1.62011 2.02634 1.6837 2 1.75 2H15.25C15.3163 2 15.3799 2.02634 15.4268 2.07322C15.4737 2.12011 15.5 2.1837 15.5 2.25V12.25C15.5 12.4489 15.579 12.6397 15.7197 12.7803C15.8603 12.921 16.0511 13 16.25 13C16.4489 13 16.6397 12.921 16.7803 12.7803C16.921 12.6397 17 12.4489 17 12.25V2.25C17 1.78587 16.8156 1.34075 16.4874 1.01256C16.1592 0.684375 15.7141 0.5 15.25 0.5H1.75C1.28587 0.5 0.840752 0.684375 0.512563 1.01256C0.184375 1.34075 0 1.78587 0 2.25V18.75C0 19.716 0.784 20.5 1.75 20.5H8.75C8.94891 20.5 9.13968 20.421 9.28033 20.2803C9.42098 20.1397 9.5 19.9489 9.5 19.75C9.5 19.5511 9.42098 19.3603 9.28033 19.2197C9.13968 19.079 8.94891 19 8.75 19H1.75C1.6837 19 1.62011 18.9737 1.57322 18.9268C1.52634 18.8799 1.5 18.8163 1.5 18.75V2.25Z" fill="white"/>
<path d="M4.25 5.5C4.05109 5.5 3.86032 5.57902 3.71967 5.71967C3.57902 5.86032 3.5 6.05109 3.5 6.25C3.5 6.44891 3.57902 6.63968 3.71967 6.78033C3.86032 6.92098 4.05109 7 4.25 7H12.75C12.9489 7 13.1397 6.92098 13.2803 6.78033C13.421 6.63968 13.5 6.44891 13.5 6.25C13.5 6.05109 13.421 5.86032 13.2803 5.71967C13.1397 5.57902 12.9489 5.5 12.75 5.5H4.25ZM3.5 10.25C3.5 10.0511 3.57902 9.86032 3.71967 9.71967C3.86032 9.57902 4.05109 9.5 4.25 9.5H8.75C8.94891 9.5 9.13968 9.57902 9.28033 9.71967C9.42098 9.86032 9.5 10.0511 9.5 10.25C9.5 10.4489 9.42098 10.6397 9.28033 10.7803C9.13968 10.921 8.94891 11 8.75 11H4.25C4.05109 11 3.86032 10.921 3.71967 10.7803C3.57902 10.6397 3.5 10.4489 3.5 10.25ZM19.78 14.78C19.8537 14.7113 19.9128 14.6285 19.9538 14.5365C19.9948 14.4445 20.0168 14.3452 20.0186 14.2445C20.0204 14.1438 20.0018 14.0438 19.9641 13.9504C19.9264 13.857 19.8703 13.7722 19.799 13.701C19.7278 13.6297 19.643 13.5736 19.5496 13.5359C19.4562 13.4982 19.3562 13.4796 19.2555 13.4814C19.1548 13.4832 19.0555 13.5052 18.9635 13.5462C18.8715 13.5872 18.7887 13.6463 18.72 13.72L13.75 18.69L11.78 16.72C11.7113 16.6463 11.6285 16.5872 11.5365 16.5462C11.4445 16.5052 11.3452 16.4832 11.2445 16.4814C11.1438 16.4796 11.0438 16.4982 10.9504 16.5359C10.857 16.5736 10.7722 16.6297 10.701 16.701C10.6297 16.7722 10.5736 16.857 10.5359 16.9504C10.4982 17.0438 10.4796 17.1438 10.4814 17.2445C10.4832 17.3452 10.5052 17.4445 10.5462 17.5365C10.5872 17.6285 10.6463 17.7113 10.72 17.78L13.22 20.28C13.3606 20.4205 13.5512 20.4993 13.75 20.4993C13.9488 20.4993 14.1394 20.4205 14.28 20.28L19.78 14.78Z" fill="white"/>
</svg>
