<svg width="21" height="20" viewBox="0 0 21 20" fill="none" xmlns="http://www.w3.org/2000/svg">
<path d="M1.5 1.75C1.5 1.6837 1.52634 1.62011 1.57322 1.57322C1.62011 1.52634 1.6837 1.5 1.75 1.5H15.25C15.3163 1.5 15.3799 1.52634 15.4268 1.57322C15.4737 1.62011 15.5 1.6837 15.5 1.75V11.75C15.5 11.9489 15.579 12.1397 15.7197 12.2803C15.8603 12.421 16.0511 12.5 16.25 12.5C16.4489 12.5 16.6397 12.421 16.7803 12.2803C16.921 12.1397 17 11.9489 17 11.75V1.75C17 1.28587 16.8156 0.840752 16.4874 0.512563C16.1592 0.184375 15.7141 0 15.25 0H1.75C1.28587 0 0.840752 0.184375 0.512563 0.512563C0.184375 0.840752 0 1.28587 0 1.75V18.25C0 19.216 0.784 20 1.75 20H8.75C8.94891 20 9.13968 19.921 9.28033 19.7803C9.42098 19.6397 9.5 19.4489 9.5 19.25C9.5 19.0511 9.42098 18.8603 9.28033 18.7197C9.13968 18.579 8.94891 18.5 8.75 18.5H1.75C1.6837 18.5 1.62011 18.4737 1.57322 18.4268C1.52634 18.3799 1.5 18.3163 1.5 18.25V1.75Z" fill="#303030"/>
<path d="M4.25 5C4.05109 5 3.86032 5.07902 3.71967 5.21967C3.57902 5.36032 3.5 5.55109 3.5 5.75C3.5 5.94891 3.57902 6.13968 3.71967 6.28033C3.86032 6.42098 4.05109 6.5 4.25 6.5H12.75C12.9489 6.5 13.1397 6.42098 13.2803 6.28033C13.421 6.13968 13.5 5.94891 13.5 5.75C13.5 5.55109 13.421 5.36032 13.2803 5.21967C13.1397 5.07902 12.9489 5 12.75 5H4.25ZM3.5 9.75C3.5 9.55109 3.57902 9.36032 3.71967 9.21967C3.86032 9.07902 4.05109 9 4.25 9H8.75C8.94891 9 9.13968 9.07902 9.28033 9.21967C9.42098 9.36032 9.5 9.55109 9.5 9.75C9.5 9.94891 9.42098 10.1397 9.28033 10.2803C9.13968 10.421 8.94891 10.5 8.75 10.5H4.25C4.05109 10.5 3.86032 10.421 3.71967 10.2803C3.57902 10.1397 3.5 9.94891 3.5 9.75ZM19.78 14.28C19.8537 14.2113 19.9128 14.1285 19.9538 14.0365C19.9948 13.9445 20.0168 13.8452 20.0186 13.7445C20.0204 13.6438 20.0018 13.5438 19.9641 13.4504C19.9264 13.357 19.8703 13.2722 19.799 13.201C19.7278 13.1297 19.643 13.0736 19.5496 13.0359C19.4562 12.9982 19.3562 12.9796 19.2555 12.9814C19.1548 12.9832 19.0555 13.0052 18.9635 13.0462C18.8715 13.0872 18.7887 13.1463 18.72 13.22L13.75 18.19L11.78 16.22C11.7113 16.1463 11.6285 16.0872 11.5365 16.0462C11.4445 16.0052 11.3452 15.9832 11.2445 15.9814C11.1438 15.9796 11.0438 15.9982 10.9504 16.0359C10.857 16.0736 10.7722 16.1297 10.701 16.201C10.6297 16.2722 10.5736 16.357 10.5359 16.4504C10.4982 16.5438 10.4796 16.6438 10.4814 16.7445C10.4832 16.8452 10.5052 16.9445 10.5462 17.0365C10.5872 17.1285 10.6463 17.2113 10.72 17.28L13.22 19.78C13.3606 19.9205 13.5512 19.9993 13.75 19.9993C13.9488 19.9993 14.1394 19.9205 14.28 19.78L19.78 14.28Z" fill="#303030"/>
</svg>
