<svg width="85" height="16" viewBox="0 0 85 16" fill="none" xmlns="http://www.w3.org/2000/svg">
<path d="M6.15625 15.0781C4.67839 15.0781 3.30794 14.6387 2.04492 13.7598C1.98633 13.7207 1.88216 13.6393 1.73242 13.5156C1.58268 13.3854 1.41992 13.2422 1.24414 13.0859C1.06836 12.9232 0.902344 12.7604 0.746094 12.5977C0.589844 12.4349 0.436849 12.2721 0.287109 12.1094L1.71289 10.7129C3.00195 12.347 4.49284 13.1641 6.18555 13.1641C7.04492 13.1641 7.88477 12.9427 8.70508 12.5C9.00456 12.3372 9.26497 12.1452 9.48633 11.9238C9.70768 11.7025 9.84766 11.4486 9.90625 11.1621C9.92578 11.0449 9.93555 10.9342 9.93555 10.8301C9.93555 10.5697 9.86393 10.3092 9.7207 10.0488C9.57747 9.78841 9.33659 9.54427 8.99805 9.31641C8.6595 9.08203 8.30143 8.90299 7.92383 8.7793C7.35091 8.61003 6.76172 8.51237 6.15625 8.48633C5.60938 8.46029 5.06901 8.38867 4.53516 8.27148C4.0013 8.14779 3.49674 7.95247 3.02148 7.68555C2.55273 7.41211 2.16211 7.02474 1.84961 6.52344C1.52409 5.95052 1.36133 5.36458 1.36133 4.76562C1.36133 4.36198 1.4362 3.95508 1.58594 3.54492C1.83984 2.90039 2.21745 2.39583 2.71875 2.03125C3.22005 1.66667 3.77018 1.40951 4.36914 1.25977C4.97461 1.11003 5.57031 1.03516 6.15625 1.03516C6.94401 1.03516 7.69596 1.16211 8.41211 1.41602C9.13477 1.66341 9.92904 2.11263 10.7949 2.76367L9.45703 4.12109C8.31771 3.33333 7.20768 2.93945 6.12695 2.93945C5.91211 2.93945 5.69401 2.95247 5.47266 2.97852C5.09505 3.0306 4.73372 3.13151 4.38867 3.28125C4.04362 3.42448 3.76693 3.61654 3.55859 3.85742C3.35677 4.0918 3.25586 4.39128 3.25586 4.75586C3.25586 5.06185 3.33398 5.33529 3.49023 5.57617C3.65299 5.81055 3.8776 6.0026 4.16406 6.15234C4.48307 6.3151 4.81836 6.42253 5.16992 6.47461C5.52799 6.52669 5.89258 6.56576 6.26367 6.5918C6.76497 6.61133 7.26302 6.66992 7.75781 6.76758C8.38281 6.89779 8.98503 7.11589 9.56445 7.42188C10.1439 7.72135 10.6452 8.125 11.0684 8.63281C11.5892 9.29036 11.8496 10.0358 11.8496 10.8691C11.8496 11.6178 11.6087 12.3177 11.127 12.9688C10.5215 13.6914 9.75325 14.2253 8.82227 14.5703C7.89779 14.9089 7.00911 15.0781 6.15625 15.0781Z" fill="white"/>
<path d="M19.0078 15.2246C18.1029 15.2246 17.276 15.0033 16.5273 14.5605C15.7786 14.1178 15.1797 13.5221 14.7305 12.7734C14.2878 12.0247 14.0664 11.1947 14.0664 10.2832C14.0664 9.37825 14.2878 8.55143 14.7305 7.80273C15.1797 7.05404 15.7786 6.45833 16.5273 6.01562C17.276 5.56641 18.1029 5.3418 19.0078 5.3418C19.6914 5.3418 20.3327 5.47201 20.9316 5.73242C21.5306 5.98633 22.1621 6.44531 22.8262 7.10938L21.4785 8.45703C20.9837 7.96224 20.554 7.63672 20.1895 7.48047C19.8249 7.32422 19.431 7.24609 19.0078 7.24609C18.4479 7.24609 17.9368 7.38281 17.4746 7.65625C17.0189 7.92969 16.6543 8.29753 16.3809 8.75977C16.1074 9.2155 15.9707 9.72331 15.9707 10.2832C15.9707 10.8431 16.1074 11.3542 16.3809 11.8164C16.6543 12.2721 17.0189 12.64 17.4746 12.9199C17.9368 13.1934 18.4479 13.3301 19.0078 13.3301C19.431 13.3301 19.8249 13.252 20.1895 13.0957C20.5605 12.9329 20.9935 12.6042 21.4883 12.1094L22.8359 13.4473C22.1654 14.1178 21.5306 14.5833 20.9316 14.8438C20.3327 15.0977 19.6914 15.2246 19.0078 15.2246Z" fill="white"/>
<path d="M33.5586 15.0781H31.6543V9.87305C31.6543 9.18294 31.4102 8.59375 30.9219 8.10547C30.4336 7.61068 29.8411 7.36328 29.1445 7.36328C28.7734 7.36328 28.4251 7.43815 28.0996 7.58789C27.7806 7.73763 27.5039 7.94596 27.2695 8.21289C26.8464 8.68164 26.6348 9.23503 26.6348 9.87305V15.0781H24.7305V0.976562H26.6348V6.04492C26.6152 6.07096 26.6055 6.09049 26.6055 6.10352C26.6055 6.11654 26.6152 6.12305 26.6348 6.12305C26.7064 6.12305 26.9766 6.01237 27.4453 5.79102C27.9206 5.56966 28.487 5.45898 29.1445 5.45898C29.8086 5.45898 30.4238 5.59245 30.9902 5.85938C31.5632 6.1263 32.0514 6.49414 32.4551 6.96289C33.1908 7.78971 33.5586 8.75977 33.5586 9.87305V15.0781Z" fill="white"/>
<path d="M40.6973 15.2246C39.7858 15.2246 38.9557 15.0033 38.207 14.5605C37.4583 14.1178 36.8594 13.5221 36.4102 12.7734C35.9674 12.0182 35.7461 11.1914 35.7461 10.293C35.7461 9.38151 35.9674 8.55143 36.4102 7.80273C36.8594 7.05404 37.4583 6.45833 38.207 6.01562C38.9557 5.56641 39.7858 5.3418 40.6973 5.3418C41.5371 5.3418 42.3118 5.53711 43.0215 5.92773C43.7376 6.31185 44.3203 6.83594 44.7695 7.5C45.2253 8.15755 45.502 8.90951 45.5996 9.75586L45.6191 10.2832L45.5898 11.2305H37.7676C37.8327 11.6406 38.1419 12.0931 38.6953 12.5879C39.2552 13.0827 39.9225 13.3301 40.6973 13.3301C41.4395 13.3301 42.2012 12.998 42.9824 12.334L44.3105 13.6816C43.627 14.2806 43.0085 14.6875 42.4551 14.9023C41.9017 15.1172 41.3158 15.2246 40.6973 15.2246ZM43.6172 9.33594C43.5521 8.92578 43.2396 8.47656 42.6797 7.98828C42.1198 7.49349 41.4557 7.24609 40.6875 7.24609C39.9258 7.24609 39.2617 7.49349 38.6953 7.98828C38.1354 8.47656 37.8229 8.92578 37.7578 9.33594H43.6172Z" fill="white"/>
<path d="M52.1816 15.0781C51.2962 15.0781 50.4889 14.8633 49.7598 14.4336C49.0306 13.9974 48.4479 13.418 48.0117 12.6953C47.582 11.9661 47.3672 11.1589 47.3672 10.2734C47.3672 9.38802 47.582 8.58073 48.0117 7.85156C48.4479 7.1224 49.0306 6.54297 49.7598 6.11328C50.4889 5.67708 51.2962 5.45898 52.1816 5.45898C52.9238 5.45898 53.6172 5.61849 54.2617 5.9375C54.7305 6.16536 55.0039 6.2793 55.082 6.2793C55.0951 6.2793 55.1016 6.27604 55.1016 6.26953C55.1016 6.25651 55.0951 6.24349 55.082 6.23047V0.976562H56.9863V10.2734C56.9863 11.4258 56.6217 12.4414 55.8926 13.3203C55.4499 13.8607 54.9062 14.2904 54.2617 14.6094C53.6172 14.9219 52.9238 15.0781 52.1816 15.0781ZM52.1816 13.1738C52.7155 13.1738 53.2005 13.0436 53.6367 12.7832C54.0794 12.5228 54.431 12.1745 54.6914 11.7383C54.9518 11.2956 55.082 10.8073 55.082 10.2734C55.082 9.73958 54.9518 9.25456 54.6914 8.81836C54.431 8.37565 54.0794 8.02409 53.6367 7.76367C53.2005 7.49674 52.7155 7.36328 52.1816 7.36328C51.6478 7.36328 51.1595 7.49674 50.7168 7.76367C50.2741 8.02409 49.9225 8.37565 49.6621 8.81836C49.4017 9.25456 49.2715 9.73958 49.2715 10.2734C49.2715 10.8073 49.4017 11.2956 49.6621 11.7383C49.9225 12.1745 50.2741 12.5228 50.7168 12.7832C51.1595 13.0436 51.6478 13.1738 52.1816 13.1738Z" fill="white"/>
<path d="M67.7188 15.0781H65.8242V14.502C65.8438 14.4759 65.8535 14.4564 65.8535 14.4434C65.8535 14.4303 65.8438 14.4238 65.8242 14.4238C65.7461 14.4238 65.4727 14.5345 65.0039 14.7559C64.5352 14.9707 63.972 15.0781 63.3145 15.0781C62.6569 15.0781 62.0417 14.9447 61.4688 14.6777C60.9023 14.4108 60.4173 14.0462 60.0137 13.584C59.278 12.7572 58.9102 11.7871 58.9102 10.6738V5.47852H60.8145V10.6738C60.8145 11.3639 61.0586 11.9564 61.5469 12.4512C62.0352 12.9395 62.6243 13.1836 63.3145 13.1836C63.6855 13.1836 64.0306 13.1087 64.3496 12.959C64.6751 12.8092 64.9551 12.6009 65.1895 12.334C65.6126 11.8652 65.8242 11.3118 65.8242 10.6738V5.47852H67.7188V15.0781Z" fill="white"/>
<path d="M71.7715 15.0781H69.8672V0.986328H71.7715V15.0781Z" fill="white"/>
<path d="M79.1543 15.2246C78.2428 15.2246 77.4128 15.0033 76.6641 14.5605C75.9154 14.1178 75.3164 13.5221 74.8672 12.7734C74.4245 12.0182 74.2031 11.1914 74.2031 10.293C74.2031 9.38151 74.4245 8.55143 74.8672 7.80273C75.3164 7.05404 75.9154 6.45833 76.6641 6.01562C77.4128 5.56641 78.2428 5.3418 79.1543 5.3418C79.9941 5.3418 80.7689 5.53711 81.4785 5.92773C82.1947 6.31185 82.7773 6.83594 83.2266 7.5C83.6823 8.15755 83.959 8.90951 84.0566 9.75586L84.0762 10.2832L84.0469 11.2305H76.2246C76.2897 11.6406 76.599 12.0931 77.1523 12.5879C77.7122 13.0827 78.3796 13.3301 79.1543 13.3301C79.8965 13.3301 80.6582 12.998 81.4395 12.334L82.7676 13.6816C82.084 14.2806 81.4655 14.6875 80.9121 14.9023C80.3587 15.1172 79.7728 15.2246 79.1543 15.2246ZM82.0742 9.33594C82.0091 8.92578 81.6966 8.47656 81.1367 7.98828C80.5768 7.49349 79.9128 7.24609 79.1445 7.24609C78.3828 7.24609 77.7188 7.49349 77.1523 7.98828C76.5924 8.47656 76.2799 8.92578 76.2148 9.33594H82.0742Z" fill="white"/>
</svg>
