<svg width="26" height="23" viewBox="0 0 26 23" fill="none" xmlns="http://www.w3.org/2000/svg">
<path d="M10.0295 1.25126C10.7727 0.760698 11.6365 0.5 12.5188 0.5C13.4011 0.5 14.2649 0.760698 15.0081 1.25126L24.6082 7.60132C24.7336 7.68437 24.8368 7.79847 24.9085 7.93323C24.9802 8.06798 25.0181 8.21911 25.0187 8.37283C25.0193 8.52655 24.9826 8.67798 24.9119 8.81332C24.8413 8.94866 24.7389 9.06361 24.6142 9.14768L20.8522 11.684V18.5094C20.8522 18.7087 20.7896 18.9027 20.6737 19.0621L20.6725 19.0634L20.6713 19.0658L20.6677 19.0707L20.657 19.083C20.6157 19.1398 20.572 19.1947 20.526 19.2476C20.4059 19.3886 20.2796 19.5238 20.1475 19.6529C19.8177 19.9809 19.326 20.4071 18.6594 20.8296C17.3248 21.6771 15.3034 22.5 12.5188 22.5C9.73428 22.5 7.71402 21.6771 6.3771 20.8296C5.84197 20.4935 5.34311 20.0994 4.88899 19.6541C4.75767 19.525 4.63214 19.3898 4.5128 19.2488C4.46167 19.1891 4.41244 19.1276 4.36518 19.0646L4.36399 19.0609C4.24807 18.9014 4.18541 18.7075 4.18541 18.5082V11.6816L1.80444 10.0775V16.6658C1.80444 16.9101 1.71037 17.1444 1.54292 17.3172C1.37548 17.4899 1.14838 17.587 0.911573 17.587C0.674771 17.587 0.447667 17.4899 0.280222 17.3172C0.112777 17.1444 0.0187076 16.9101 0.0187076 16.6658V8.37511C0.0185859 8.2174 0.0577104 8.0623 0.132335 7.92467C0.206959 7.78703 0.314584 7.67146 0.444902 7.58903L10.0295 1.25126ZM15.0415 15.5997C14.2911 16.1044 13.4146 16.3732 12.5188 16.3732C11.623 16.3732 10.7466 16.1044 9.99618 15.5997L5.97115 12.8877V18.1643C6.0148 18.2118 6.06638 18.265 6.12591 18.3239C6.3771 18.5733 6.76877 18.9147 7.31282 19.2599C8.39498 19.9477 10.095 20.6588 12.5188 20.6588C14.9427 20.6588 16.6427 19.9465 17.7248 19.2599C18.213 18.9515 18.6634 18.5836 19.0665 18.1643V12.8877L15.0415 15.5997ZM14.045 2.80254C13.1153 2.18841 11.9224 2.18841 10.9926 2.80254L2.55445 8.38371L10.9724 14.0582C11.9129 14.6908 13.126 14.6908 14.0653 14.0582L22.482 8.38371L14.045 2.80254Z" fill="white" fill-opacity="0.5"/>
</svg>
