<svg width="25" height="23" viewBox="0 0 25 23" fill="none" xmlns="http://www.w3.org/2000/svg">
<path d="M10.0108 1.25126C10.754 0.760698 11.6178 0.5 12.5001 0.5C13.3824 0.5 14.2462 0.760698 14.9894 1.25126L24.5895 7.60132C24.7149 7.68437 24.8181 7.79847 24.8898 7.93323C24.9615 8.06798 24.9994 8.21911 25 8.37283C25.0006 8.52655 24.9639 8.67798 24.8932 8.81332C24.8226 8.94866 24.7202 9.06361 24.5955 9.14768L20.8335 11.684V18.5094C20.8335 18.7087 20.7709 18.9027 20.655 19.0621L20.6538 19.0634L20.6526 19.0658L20.649 19.0707L20.6383 19.083C20.597 19.1398 20.5533 19.1947 20.5073 19.2476C20.3872 19.3886 20.2609 19.5238 20.1288 19.6529C19.799 19.9809 19.3073 20.4071 18.6407 20.8296C17.3061 21.6771 15.2847 22.5 12.5001 22.5C9.71557 22.5 7.69531 21.6771 6.35839 20.8296C5.82326 20.4935 5.3244 20.0994 4.87029 19.6541C4.73897 19.525 4.61344 19.3898 4.49409 19.2488C4.44297 19.1891 4.39373 19.1276 4.34647 19.0646L4.34528 19.0609C4.22937 18.9014 4.16671 18.7075 4.16671 18.5082V11.6816L1.78573 10.0775V16.6658C1.78573 16.9101 1.69166 17.1444 1.52422 17.3172C1.35677 17.4899 1.12967 17.587 0.892866 17.587C0.656063 17.587 0.428959 17.4899 0.261515 17.3172C0.0940698 17.1444 2.82949e-07 16.9101 2.82949e-07 16.6658V8.37511C-0.000121395 8.2174 0.0390032 8.0623 0.113627 7.92467C0.188252 7.78703 0.295876 7.67146 0.426195 7.58903L10.0108 1.25126ZM15.0228 15.5997C14.2724 16.1044 13.3959 16.3732 12.5001 16.3732C11.6043 16.3732 10.7279 16.1044 9.97748 15.5997L5.95244 12.8877V18.1643C5.99609 18.2118 6.04768 18.265 6.1072 18.3239C6.35839 18.5733 6.75006 18.9147 7.29412 19.2599C8.37627 19.9477 10.0763 20.6588 12.5001 20.6588C14.924 20.6588 16.624 19.9465 17.7061 19.2599C18.1943 18.9515 18.6447 18.5836 19.0478 18.1643V12.8877L15.0228 15.5997ZM14.0263 2.80254C13.0966 2.18841 11.9037 2.18841 10.9739 2.80254L2.53574 8.38371L10.9537 14.0582C11.8942 14.6908 13.1073 14.6908 14.0466 14.0582L22.4633 8.38371L14.0263 2.80254Z" fill="#303030"/>
</svg>
