<svg width="30" height="31" viewBox="0 0 30 31" fill="none" xmlns="http://www.w3.org/2000/svg">
<path d="M15 0.110352C11.0227 0.110352 7.20469 1.69168 4.39453 4.50371C1.5815 7.31687 0.000804958 11.132 0 15.1104C0 19.087 1.58203 22.905 4.39453 25.717C7.20469 28.529 11.0227 30.1104 15 30.1104C18.9773 30.1104 22.7953 28.529 25.6055 25.717C28.418 22.905 30 19.087 30 15.1104C30 11.1337 28.418 7.31574 25.6055 4.50371C22.7953 1.69168 18.9773 0.110352 15 0.110352Z" fill="url(#paint0_linear_1726_181)"/>
<path d="M6.78984 14.9519C11.1633 13.0469 14.0789 11.791 15.5367 11.1841C19.7039 9.45137 20.5687 9.15043 21.1336 9.14023C21.2578 9.13824 21.5344 9.16895 21.7148 9.31484C21.8648 9.43789 21.907 9.6043 21.9281 9.72113C21.9469 9.83785 21.9727 10.1039 21.9516 10.3115C21.7266 12.6834 20.7492 18.4392 20.2523 21.0958C20.0438 22.2199 19.6289 22.5968 19.2281 22.6336C18.3562 22.7137 17.6953 22.0579 16.8516 21.505C15.532 20.6395 14.7867 20.1009 13.5047 19.2564C12.0234 18.2805 12.9844 17.744 13.8281 16.8675C14.0484 16.638 17.8875 13.147 17.9602 12.8304C17.9695 12.7907 17.9789 12.6431 17.8898 12.5653C17.8031 12.4872 17.6742 12.5139 17.5805 12.535C17.4469 12.565 15.3398 13.9591 11.2523 16.717C10.6547 17.1281 10.1133 17.3285 9.62578 17.3179C9.09141 17.3064 8.06016 17.0151 7.29375 16.7662C6.35625 16.4608 5.60859 16.2993 5.67422 15.7807C5.70703 15.5107 6.07969 15.2343 6.78984 14.9519Z" fill="white"/>
<defs>
<linearGradient id="paint0_linear_1726_181" x1="1500" y1="0.110352" x2="1500" y2="3000.11" gradientUnits="userSpaceOnUse">
<stop stop-color="#2AABEE"/>
<stop offset="1" stop-color="#229ED9"/>
</linearGradient>
</defs>
</svg>
