<svg width="30" height="30" viewBox="0 0 30 30" fill="none" xmlns="http://www.w3.org/2000/svg">
<path d="M0 14.375C0 7.59856 0 4.21034 2.10517 2.10517C4.21034 0 7.59856 0 14.375 0H15.625C22.4014 0 25.7897 0 27.8948 2.10517C30 4.21034 30 7.59856 30 14.375V15.625C30 22.4014 30 25.7897 27.8948 27.8948C25.7897 30 22.4014 30 15.625 30H14.375C7.59856 30 4.21034 30 2.10517 27.8948C0 25.7897 0 22.4014 0 15.625V14.375Z" fill="#2787F5"/>
<path fill-rule="evenodd" clip-rule="evenodd" d="M7.93831 9.375H5.75031C5.12516 9.375 5.00012 9.66925 5.00012 9.99363C5.00012 10.5731 5.74191 13.4467 8.45399 17.2474C10.2621 19.843 12.8094 21.25 15.1275 21.25C16.5183 21.25 16.6904 20.9375 16.6904 20.3993V18.4375C16.6904 17.8125 16.8221 17.6877 17.2625 17.6877C17.5871 17.6877 18.1434 17.85 19.4415 19.1014C20.9251 20.5846 21.1696 21.25 22.0041 21.25H24.1921C24.8172 21.25 25.1298 20.9375 24.9495 20.3208C24.7522 19.7062 24.0439 18.8144 23.104 17.7573C22.594 17.1548 21.8291 16.5059 21.5972 16.1814C21.2727 15.7643 21.3654 15.5788 21.5972 15.2081C21.5972 15.2081 24.263 11.4537 24.5412 10.1791C24.6802 9.71556 24.5412 9.375 23.8795 9.375H21.6915C21.1352 9.375 20.8787 9.66925 20.7396 9.99363C20.7396 9.99363 19.6269 12.7051 18.0507 14.4664C17.5407 14.9762 17.3089 15.1385 17.0307 15.1385C16.8916 15.1385 16.6903 14.9763 16.6903 14.5128V10.1791C16.6903 9.62288 16.5289 9.375 16.0652 9.375H12.6269C12.2792 9.375 12.0701 9.63313 12.0701 9.87781C12.0701 10.4051 12.8582 10.5267 12.9395 12.0099V15.2313C12.9395 15.9375 12.8119 16.0656 12.5337 16.0656C11.792 16.0656 9.98768 13.3419 8.91756 10.2254C8.70787 9.61969 8.49749 9.375 7.93831 9.375Z" fill="white"/>
</svg>
